# xmcd CD database file
#
# Track frame offsets:
#	150
#	39307
#	65837
#	119730
#	152470
#	198065
#	235588
#
# Disc length: 3584 seconds
#
# Revision: 0
# Processed by: cddbd v1.5.2PL0 Copyright (c) Steve Scherf et al.
# Submitted via: CDex 1.70beta3
#
DISCID=540dfe07
DTITLE=Fullblast - Risc
DYEAR=2015
DGENRE=Jazz
TTITLE0=Try Kraka
TTITLE1=Cafe Ing rid
TTITLE2=Doss House
TTITLE3=Garnison Lane
TTITLE4=TTD
TTITLE5=Sch warzspanier Street
TTITLE6=Rog uery
EXTD=YEAR: 2015
EXTT0=
EXTT1=
EXTT2=
EXTT3=
EXTT4=
EXTT5=
EXTT6=
PLAYORDER=
